<svg width="32" height="32" viewBox="0 0 32 32" fill="none" xmlns="http://www.w3.org/2000/svg">
<path d="M11.469 5C7.918 5 5 7.914 5 11.469V20.531C5 24.082 7.914 27 11.469 27H20.531C24.082 27 27 24.086 27 20.531V11.47C27 7.918 24.086 5 20.531 5H11.469ZM11.469 7H20.531C21.1181 6.99921 21.6996 7.11427 22.2421 7.33857C22.7847 7.56288 23.2777 7.89204 23.6928 8.30718C24.108 8.72232 24.4371 9.21529 24.6614 9.75785C24.8857 10.3004 25.0008 10.8819 25 11.469V20.531C25.0008 21.1181 24.8857 21.6996 24.6614 22.2421C24.4371 22.7847 24.108 23.2777 23.6928 23.6928C23.2777 24.108 22.7847 24.4371 22.2421 24.6614C21.6996 24.8857 21.1181 25.0008 20.531 25H11.47C10.8828 25.0009 10.3012 24.886 9.75855 24.6617C9.21587 24.4375 8.72278 24.1083 8.30753 23.6932C7.89228 23.278 7.56304 22.785 7.33867 22.2424C7.1143 21.6998 6.99921 21.1182 7 20.531V11.47C6.99908 10.8828 7.11404 10.3012 7.33829 9.75855C7.56254 9.21587 7.89167 8.72278 8.30682 8.30753C8.72198 7.89228 9.215 7.56304 9.75762 7.33867C10.3002 7.1143 10.8818 6.99921 11.469 7ZM21.906 9.188C21.7869 9.18747 21.6688 9.21054 21.5587 9.25589C21.4485 9.30123 21.3484 9.36795 21.2642 9.45218C21.1799 9.53642 21.1132 9.6365 21.0679 9.74666C21.0225 9.85682 20.9995 9.97487 21 10.094C21 10.598 21.402 11 21.906 11C22.0252 11.0007 22.1434 10.9777 22.2536 10.9324C22.3639 10.8871 22.4641 10.8204 22.5485 10.7362C22.6328 10.6519 22.6996 10.5518 22.745 10.4416C22.7904 10.3313 22.8135 10.2132 22.813 10.094C22.8135 9.97479 22.7904 9.85666 22.745 9.74643C22.6996 9.6362 22.6328 9.53607 22.5485 9.45182C22.4641 9.36758 22.3639 9.30088 22.2536 9.2556C22.1434 9.21031 22.0252 9.18734 21.906 9.188ZM16 10C12.7 10 10 12.7 10 16C10 19.3 12.7 22 16 22C19.3 22 22 19.3 22 16C22 12.7 19.3 10 16 10ZM16 12C18.223 12 20 13.777 20 16C20 18.223 18.223 20 16 20C13.777 20 12 18.223 12 16C12 13.777 13.777 12 16 12Z" fill="#EB4436"/>
</svg>
