<svg width="1440" height="130" viewBox="0 0 1440 130" fill="none" xmlns="http://www.w3.org/2000/svg">
<path opacity="0.1" d="M0.517849 2.51966L35.1678 2.57548L35.0147 97.6004L93.4647 97.6945L93.4204 125.169L0.320511 125.02L0.517849 2.51966ZM107.329 2.69173L141.979 2.74755L141.782 125.247L107.132 125.192L107.329 2.69173ZM264.827 98.6706L264.783 125.446L166.434 125.287L166.631 2.78726L262.706 2.94203L262.663 29.717L200.888 29.6175L200.854 50.2675L255.279 50.3551L255.238 76.2551L200.813 76.1674L200.777 98.5674L264.827 98.6706ZM344.912 128.025C332.078 128.004 320.533 125.302 310.275 119.919C300.133 114.419 292.154 106.823 286.336 97.1302C280.519 87.4375 277.62 76.4662 277.639 64.2162C277.659 51.9662 280.593 41.0042 286.442 31.3303C292.291 21.6564 300.295 14.1443 310.454 8.79396C320.729 3.32717 332.284 0.604113 345.117 0.624787C356.317 0.642829 366.405 2.64242 375.382 6.62356C384.359 10.6047 391.817 16.3334 397.755 23.8096L375.672 43.7241C367.755 34.1446 358.137 29.3458 346.821 29.3276C340.171 29.3169 334.218 30.7656 328.964 33.6738C323.826 36.5822 319.794 40.7174 316.869 46.0793C314.06 51.3248 312.65 57.3892 312.639 64.2726C312.628 71.1559 314.018 77.2831 316.81 82.6543C319.718 87.909 323.736 91.9988 328.865 94.9237C334.11 97.8489 340.058 99.3168 346.708 99.3275C358.025 99.3457 367.657 94.5779 375.606 85.024L397.624 105.01C391.662 112.467 384.186 118.171 375.196 122.123C366.206 126.076 356.112 128.043 344.912 128.025ZM529.787 3.37228L529.59 125.872L494.94 125.816L495.017 78.0414L447.767 77.9653L447.69 125.74L413.04 125.684L413.237 3.18453L447.887 3.24034L447.813 49.2653L495.063 49.3414L495.137 3.31646L529.787 3.37228ZM580.259 30.9286L542.634 30.868L542.678 3.39305L652.403 3.56981L652.359 31.0448L614.909 30.9844L614.756 126.009L580.106 125.954L580.259 30.9286ZM763.508 99.4739L763.464 126.249L665.115 126.09L665.312 3.5906L761.387 3.74537L761.344 30.5203L699.569 30.4208L699.535 51.0708L753.96 51.1585L753.919 77.0584L699.494 76.9708L699.458 99.3707L763.508 99.4739ZM899.44 3.96776L899.242 126.468L870.717 126.422L816.748 61.0596L816.642 126.335L782.693 126.28L782.89 3.78001L811.415 3.82596L865.385 69.188L865.49 3.91307L899.44 3.96776ZM966.73 129.026C956.813 129.01 947.19 127.77 937.861 125.305C928.531 122.84 920.953 119.561 915.126 115.468L926.542 89.9365C932.02 93.562 938.374 96.4889 945.603 98.7173C952.833 100.946 959.948 102.065 966.948 102.077C980.248 102.098 986.903 98.7838 986.914 92.1338C986.92 88.6338 984.999 86.064 981.151 84.4245C977.421 82.6685 971.357 80.8504 962.96 78.9702C953.747 76.972 946.05 74.8596 939.87 72.633C933.691 70.2897 928.388 66.6062 923.963 61.5823C919.538 56.5585 917.332 49.7883 917.346 41.2717C917.358 33.805 919.41 27.1 923.503 21.1565C927.596 15.0965 933.671 10.3229 941.726 6.83589C949.899 3.34905 959.876 1.61512 971.66 1.6341C979.71 1.64707 987.642 2.59319 995.455 4.47245C1003.27 6.23503 1010.15 8.87112 1016.09 12.3807L1005.38 38.0885C993.72 31.7697 982.408 28.6015 971.441 28.5838C964.558 28.5727 959.54 29.6146 956.386 31.7095C953.233 33.6878 951.654 36.3103 951.649 39.5769C951.643 42.8436 953.506 45.2966 957.237 46.9359C960.967 48.5753 966.973 50.2766 975.254 52.04C984.584 54.0383 992.28 56.2091 998.343 58.5522C1004.52 60.7788 1009.83 64.404 1014.25 69.4278C1018.79 74.3351 1021.06 81.0471 1021.04 89.5638C1021.03 96.9138 1018.98 103.56 1014.89 109.504C1010.79 115.447 1004.66 120.221 996.488 123.824C988.316 127.311 978.396 129.045 966.73 129.026ZM1061.51 31.7039L1023.88 31.6433L1023.93 4.16831L1133.65 4.34506L1133.61 31.82L1096.16 31.7597L1096.01 126.785L1061.36 126.729L1061.51 31.7039ZM1244.76 100.249L1244.71 127.024L1146.36 126.866L1146.56 4.36586L1242.64 4.52063L1242.59 31.2956L1180.82 31.1961L1180.78 51.8461L1235.21 51.9337L1235.17 77.8337L1180.74 77.746L1180.71 100.146L1244.76 100.249ZM1264.14 4.55527L1298.79 4.61109L1298.59 127.111L1263.94 127.055L1264.14 4.55527ZM1439.99 4.83855L1439.79 127.338L1411.27 127.292L1357.3 61.9304L1357.19 127.205L1323.24 127.151L1323.44 4.6508L1351.97 4.69675L1405.94 70.0588L1406.04 4.78386L1439.99 4.83855Z" fill="#EB4436"/>
</svg>
