<svg width="29" height="29" viewBox="0 0 29 29" fill="none" xmlns="http://www.w3.org/2000/svg">
<path d="M10.1915 20.9023C10.7779 20.1863 11.2545 19.6148 11.7212 19.0366C14.1779 15.9894 16.6313 12.9405 19.0896 9.89325C20.896 7.65447 22.7058 5.41736 24.5188 3.18362C25.1722 2.37853 25.8175 1.56672 26.507 0.793563C26.9034 0.348159 27.3832 -0.00480257 28.0285 -0.00144103C28.5837 0.00192051 28.9195 0.291013 28.985 0.860794C29.08 1.68941 28.7557 2.40878 28.3462 3.06933C25.9354 6.96199 23.5099 10.8429 21.0794 14.7221C18.8848 18.2248 16.6771 21.7192 14.4727 25.2152C13.9109 26.106 13.3999 27.0405 12.7596 27.8674C11.6557 29.291 9.59049 29.3851 8.34906 28.0775C7.51543 27.1985 6.77025 26.2287 5.99067 25.2958C4.25463 23.2167 2.52023 21.1342 0.785835 19.0534C-0.17226 17.9038 -0.2607 16.2987 0.568012 15.1389C1.4262 13.9389 2.96734 13.5271 4.32997 14.1893C4.70011 14.3691 5.05059 14.6582 5.32246 14.9776C6.84395 16.7659 8.33923 18.5778 9.84107 20.3846C9.95243 20.5224 10.0425 20.6821 10.1915 20.9023Z" fill="#EB4436"/>
</svg>
